# xmcd
#
# Track frame offsets:
#	150
#	13389
#	28170
#	44539
#	63973
#	80441
#	96521
#	114029
#	130323
#	144944
#	158183
#	172964
#	189333
#	208767
#	225235
#	241315
#	258823
#	275117
#
# Disc length: 3863
#
# Revision: 2
# Processed by: cddbd v1.5.2PL0 Copyright (c) Steve Scherf et al.
# Submitted via: kJams Pro (development) 1.0patch45.10
#
DISCID=f30f1512
DTITLE=Various Artist - NSC 3028
DYEAR=1996
DGENRE=Country
TTITLE0=Brooks and Dunn - My Heart Is Lost To You
TTITLE1=Jo Dee Messina - Dare To Dream
TTITLE2=Diamond Rio - Beautiful Miss
TTITLE3=Martina McBride - Where Would You Be
TTITLE4=Blake Shelton - Ol' Red 
TTITLE5=Cyndy Thomson - I'm Gone
TTITLE6=Joe Nichols - The Impossible
TTITLE7=Montgomery Gentry - Didn't I
TTITLE8=Joanna Janet - Since I Seen You Last
TTITLE9=Brooks and Dunn - Vocals - My Heart Is Lost To You
TTITLE10=Jo Dee Messina - Vocals - Dare To Dream
TTITLE11=Diamond Rio - Vocals - Beautiful Miss
TTITLE12=Martina McBride - Vocals - Where Would You Be
TTITLE13=Blake Shelton - Vocals - Ol' Red 
TTITLE14=Cyndy Thomson - Vocals - I'm Gone
TTITLE15=Joe Nicholas - Vocals - The Impossible
TTITLE16=Montgomery Gentry - Vocals - Didn't I
TTITLE17=Joanna Janet - Vocals - Since I Seen You Last
EXTD=
EXTT0=
EXTT1=
EXTT2=
EXTT3=
EXTT4=
EXTT5=
EXTT6=
EXTT7=
EXTT8=
EXTT9=
EXTT10=
EXTT11=
EXTT12=
EXTT13=
EXTT14=
EXTT15=
EXTT16=
EXTT17=
PLAYORDER=
